<svg width="217" height="67" viewBox="0 0 217 67" fill="none" xmlns="http://www.w3.org/2000/svg">
<path d="M30.7794 44.216V53H4.42739V44.216H13.0894V28.661C12.7234 29.149 12.1541 29.637 11.3814 30.125C10.6087 30.613 9.73439 31.0807 8.75839 31.528C7.82305 31.9753 6.86739 32.3413 5.89139 32.626C4.91539 32.87 4.02072 32.992 3.20739 32.992V23.964C3.89872 23.964 4.75272 23.7607 5.76939 23.354C6.78605 22.9067 7.80272 22.3577 8.81939 21.707C9.87672 21.0563 10.7917 20.4057 11.5644 19.755C12.3777 19.1043 12.8861 18.5757 13.0894 18.169H23.0324V44.216H30.7794ZM68.1467 38.421C68.1467 35.6963 67.4757 33.2767 66.1337 31.162C64.8323 29.0067 63.043 27.2987 60.7657 26.038C58.4883 24.7773 55.906 24.147 53.0187 24.147C51.8393 24.147 50.7413 24.2893 49.7247 24.574C48.708 24.818 47.8133 25.2043 47.0407 25.733C46.268 26.221 45.597 26.8513 45.0277 27.624C45.109 25.55 45.475 23.781 46.1257 22.317C46.7763 20.853 47.6913 19.7347 48.8707 18.962C50.05 18.1893 51.4123 17.803 52.9577 17.803C54.5843 17.803 56.1093 18.169 57.5327 18.901C58.956 19.633 60.176 20.6497 61.1927 21.951L66.6827 15.729C64.9747 13.6957 62.9617 12.13 60.6437 11.032C58.3257 9.89333 55.8247 9.324 53.1407 9.324C49.6027 9.324 46.5527 10.2593 43.9907 12.13C41.4693 13.96 39.5173 16.644 38.1347 20.182C36.752 23.72 36.0607 28.0103 36.0607 33.053C36.0607 37.3637 36.691 41.0643 37.9517 44.155C39.253 47.205 41.1033 49.5433 43.5027 51.17C45.902 52.7967 48.7893 53.61 52.1647 53.61C55.174 53.61 57.8783 52.939 60.2777 51.597C62.7177 50.2143 64.629 48.3843 66.0117 46.107C67.435 43.8297 68.1467 41.2677 68.1467 38.421ZM52.1647 45.375C50.9853 45.375 49.8873 45.07 48.8707 44.46C47.854 43.8093 47.0203 42.9553 46.3697 41.898C45.7597 40.8407 45.4547 39.702 45.4547 38.482C45.4547 37.2213 45.7597 36.103 46.3697 35.127C46.9797 34.1103 47.793 33.3173 48.8097 32.748C49.8263 32.138 50.9447 31.833 52.1647 31.833C53.3847 31.833 54.503 32.138 55.5197 32.748C56.5363 33.3173 57.3497 34.1103 57.9597 35.127C58.5697 36.103 58.8747 37.201 58.8747 38.421C58.8747 39.6817 58.5493 40.8407 57.8987 41.898C57.2887 42.9553 56.4753 43.8093 55.4587 44.46C54.4827 45.07 53.3847 45.375 52.1647 45.375ZM76.162 61.235L78.053 52.878H75.064V43.057H83.299V52.878L80.432 61.235H76.162ZM89.958 53C89.958 51.0887 90.1003 49.3807 90.385 47.876C90.7103 46.3713 91.2186 45.009 91.91 43.789C92.642 42.5283 93.5976 41.3693 94.777 40.312C95.997 39.214 97.522 38.177 99.352 37.201C101.263 36.1843 102.849 35.3303 104.11 34.639C105.411 33.907 106.448 33.297 107.221 32.809C107.994 32.321 108.522 31.8533 108.807 31.406C109.132 30.918 109.295 30.3893 109.295 29.82C109.295 29.0473 109.112 28.3763 108.746 27.807C108.38 27.2377 107.851 26.8107 107.16 26.526C106.469 26.2007 105.615 26.038 104.598 26.038C103.785 26.038 103.012 26.1397 102.28 26.343C101.548 26.5463 100.836 26.8513 100.145 27.258C99.4943 27.6647 98.864 28.1527 98.254 28.722C97.644 29.2507 97.034 29.8607 96.424 30.552L90.263 23.354C90.9543 22.6627 91.8286 21.9713 92.886 21.28C93.984 20.5887 95.2243 19.9787 96.607 19.45C97.9896 18.8807 99.4943 18.4333 101.121 18.108C102.788 17.742 104.517 17.559 106.306 17.559C109.234 17.559 111.694 18.0063 113.687 18.901C115.72 19.755 117.266 20.975 118.323 22.561C119.38 24.147 119.909 26.0177 119.909 28.173C119.909 29.5557 119.685 30.7757 119.238 31.833C118.831 32.8497 118.282 33.7647 117.591 34.578C116.9 35.3913 116.107 36.1233 115.212 36.774C114.358 37.4247 113.504 38.0143 112.65 38.543C111.674 39.031 110.759 39.519 109.905 40.007C109.051 40.4543 108.258 40.9017 107.526 41.349C106.794 41.7557 106.103 42.203 105.452 42.691C104.842 43.1383 104.252 43.6467 103.683 44.216H120.58V53H89.958ZM154.562 44.216V53H128.21V44.216H136.872V28.661C136.506 29.149 135.936 29.637 135.164 30.125C134.391 30.613 133.517 31.0807 132.541 31.528C131.605 31.9753 130.65 32.3413 129.674 32.626C128.698 32.87 127.803 32.992 126.99 32.992V23.964C127.681 23.964 128.535 23.7607 129.552 23.354C130.568 22.9067 131.585 22.3577 132.602 21.707C133.659 21.0563 134.574 20.4057 135.347 19.755C136.16 19.1043 136.668 18.5757 136.872 18.169H146.815V44.216H154.562Z" fill="url(#paint0_linear_143_1528)"/>
<path d="M179.704 32.929C177.752 32.929 175.983 32.5223 174.397 31.709C172.852 30.855 171.612 29.7163 170.676 28.293C169.741 26.829 169.273 25.2227 169.273 23.474C169.273 21.7253 169.741 20.1393 170.676 18.716C171.612 17.2927 172.852 16.1743 174.397 15.361C175.983 14.507 177.752 14.08 179.704 14.08C181.656 14.08 183.425 14.507 185.011 15.361C186.597 16.1743 187.838 17.2927 188.732 18.716C189.668 20.1393 190.135 21.7253 190.135 23.474C190.135 25.2227 189.668 26.829 188.732 28.293C187.838 29.7163 186.597 30.855 185.011 31.709C183.425 32.5223 181.656 32.929 179.704 32.929ZM179.704 28.171C180.396 28.171 181.006 27.9677 181.534 27.561C182.104 27.1137 182.551 26.5443 182.876 25.853C183.202 25.121 183.364 24.3483 183.364 23.535C183.364 22.6403 183.202 21.8473 182.876 21.156C182.551 20.4647 182.104 19.9157 181.534 19.509C180.965 19.0617 180.355 18.838 179.704 18.838C179.054 18.838 178.444 19.0617 177.874 19.509C177.305 19.9157 176.858 20.4647 176.532 21.156C176.207 21.8473 176.044 22.62 176.044 23.474C176.044 24.328 176.207 25.121 176.532 25.853C176.858 26.5443 177.305 27.1137 177.874 27.561C178.444 27.9677 179.054 28.171 179.704 28.171ZM204.47 58.61C202.518 58.61 200.749 58.2033 199.163 57.39C197.618 56.536 196.378 55.3973 195.442 53.974C194.507 52.51 194.039 50.924 194.039 49.216C194.039 47.4267 194.507 45.8203 195.442 44.397C196.378 42.9737 197.618 41.8553 199.163 41.042C200.749 40.188 202.518 39.761 204.47 39.761C206.422 39.761 208.191 40.188 209.777 41.042C211.363 41.8553 212.604 42.9737 213.498 44.397C214.434 45.8203 214.901 47.4063 214.901 49.155C214.901 50.9037 214.434 52.51 213.498 53.974C212.604 55.3973 211.363 56.536 209.777 57.39C208.191 58.2033 206.422 58.61 204.47 58.61ZM204.47 53.852C205.162 53.852 205.792 53.6487 206.361 53.242C206.931 52.7947 207.378 52.2253 207.703 51.534C208.029 50.802 208.191 50.0293 208.191 49.216C208.191 48.3213 208.008 47.5283 207.642 46.837C207.317 46.1457 206.87 45.5967 206.3 45.19C205.731 44.7427 205.141 44.519 204.531 44.519C203.84 44.519 203.21 44.7427 202.64 45.19C202.071 45.5967 201.624 46.1457 201.298 46.837C200.973 47.5283 200.81 48.301 200.81 49.155C200.81 50.009 200.973 50.802 201.298 51.534C201.624 52.2253 202.071 52.7947 202.64 53.242C203.21 53.6487 203.82 53.852 204.47 53.852ZM173.482 54.584L190.745 34.82L206.361 14.141L210.692 18.045L194.039 37.321L177.813 58.549L173.482 54.584Z" fill="url(#paint1_linear_143_1528)"/>
<defs>
<linearGradient id="paint0_linear_143_1528" x1="78" y1="-5" x2="78" y2="67" gradientUnits="userSpaceOnUse">
<stop stop-color="#12C5D0"/>
<stop offset="1" stop-color="white"/>
</linearGradient>
<linearGradient id="paint1_linear_143_1528" x1="192" y1="0" x2="192" y2="67" gradientUnits="userSpaceOnUse">
<stop stop-color="#12C5D0"/>
<stop offset="1" stop-color="white"/>
</linearGradient>
</defs>
</svg>
