<svg width="64" height="64" viewBox="0 0 64 64" fill="none" xmlns="http://www.w3.org/2000/svg">
<rect width="64" height="64" rx="32" fill="#3BC3E1" fill-opacity="0.2"/>
<path fill-rule="evenodd" clip-rule="evenodd" d="M37 24.5C37 27.5376 34.5376 30 31.5 30C28.4624 30 26 27.5376 26 24.5C26 21.4624 28.4624 19 31.5 19C34.5376 19 37 21.4624 37 24.5ZM39 24.5C39 28.6421 35.6421 32 31.5 32C27.3579 32 24 28.6421 24 24.5C24 20.3579 27.3579 17 31.5 17C35.6421 17 39 20.3579 39 24.5ZM32 34.5C39.4432 34.5 43.6902 40.1631 44.7409 44.5C44.9136 45.2128 45 45.8899 45 46.5H43H32H21H19C19 45.8899 19.0864 45.2128 19.2591 44.5C20.3098 40.1631 24.5568 34.5 32 34.5ZM40.2492 40.2011C41.4731 41.5906 42.263 43.143 42.6693 44.5H32H21.3307C21.737 43.143 22.5269 41.5906 23.7508 40.2011C25.5912 38.1118 28.3173 36.5 32 36.5C35.6827 36.5 38.4088 38.1118 40.2492 40.2011Z" fill="#3BC3E1"/>
</svg>
