<svg width="64" height="64" viewBox="0 0 64 64" fill="none" xmlns="http://www.w3.org/2000/svg">
<rect width="64" height="64" rx="32" fill="#BB6BD9" fill-opacity="0.2"/>
<path d="M30.46 47.34V17.26H33.084V47.34H30.46ZM31.452 43.82C29.7027 43.82 28.028 43.5747 26.428 43.084C24.828 42.572 23.5587 41.9213 22.62 41.132L24.06 37.9C24.956 38.604 26.0653 39.1907 27.388 39.66C28.7107 40.1293 30.0653 40.364 31.452 40.364C32.6253 40.364 33.5747 40.236 34.3 39.98C35.0253 39.724 35.5587 39.3827 35.9 38.956C36.2413 38.508 36.412 38.0067 36.412 37.452C36.412 36.7693 36.1667 36.2253 35.676 35.82C35.1853 35.3933 34.5453 35.0627 33.756 34.828C32.988 34.572 32.124 34.3373 31.164 34.124C30.2253 33.9107 29.276 33.6653 28.316 33.388C27.3773 33.0893 26.5133 32.716 25.724 32.268C24.956 31.7987 24.3267 31.18 23.836 30.412C23.3453 29.644 23.1 28.6627 23.1 27.468C23.1 26.252 23.42 25.1427 24.06 24.14C24.7213 23.116 25.7133 22.3053 27.036 21.708C28.38 21.0893 30.076 20.78 32.124 20.78C33.468 20.78 34.8013 20.9507 36.124 21.292C37.4467 21.6333 38.5987 22.124 39.58 22.764L38.268 25.996C37.2653 25.3987 36.2307 24.9613 35.164 24.684C34.0973 24.3853 33.0733 24.236 32.092 24.236C30.94 24.236 30.0013 24.3747 29.276 24.652C28.572 24.9293 28.0493 25.292 27.708 25.74C27.388 26.188 27.228 26.7 27.228 27.276C27.228 27.9587 27.4627 28.5133 27.932 28.94C28.4227 29.3453 29.052 29.6653 29.82 29.9C30.6093 30.1347 31.484 30.3693 32.444 30.604C33.404 30.8173 34.3533 31.0627 35.292 31.34C36.252 31.6173 37.116 31.98 37.884 32.428C38.6733 32.876 39.3027 33.484 39.772 34.252C40.2627 35.02 40.508 35.9907 40.508 37.164C40.508 38.3587 40.1773 39.468 39.516 40.492C38.876 41.4947 37.884 42.3053 36.54 42.924C35.196 43.5213 33.5 43.82 31.452 43.82Z" fill="#BB6BD9"/>
</svg>
